<?xml version="1.0" encoding="UTF-8" standalone="no"?>
<!-- Created with Inkscape (http://www.inkscape.org/) -->

<svg
   xmlns:dc="http://purl.org/dc/elements/1.1/"
   xmlns:cc="http://creativecommons.org/ns#"
   xmlns:rdf="http://www.w3.org/1999/02/22-rdf-syntax-ns#"
   xmlns:svg="http://www.w3.org/2000/svg"
   xmlns="http://www.w3.org/2000/svg"
   xmlns:sodipodi="http://sodipodi.sourceforge.net/DTD/sodipodi-0.dtd"
   xmlns:inkscape="http://www.inkscape.org/namespaces/inkscape"
   width="50"
   height="50"
   id="svg2"
   version="1.1"
   inkscape:version="0.48.4 r9939"
   inkscape:export-xdpi="144"
   inkscape:export-ydpi="144">
  <defs
     id="defs4" />
  <sodipodi:namedview
     id="base"
     pagecolor="#ffffff"
     bordercolor="#666666"
     borderopacity="1.0"
     inkscape:pageopacity="0.0"
     inkscape:pageshadow="2"
     inkscape:zoom="3.959798"
     inkscape:cx="52.715801"
     inkscape:cy="12.739491"
     inkscape:document-units="px"
     inkscape:current-layer="layer1"
     showgrid="false"
     inkscape:window-width="753"
     inkscape:window-height="525"
     inkscape:window-x="275"
     inkscape:window-y="197"
     inkscape:window-maximized="0" />
  <metadata
     id="metadata7">
    <rdf:RDF>
      <cc:Work
         rdf:about="">
        <dc:format>image/svg+xml</dc:format>
        <dc:type
           rdf:resource="http://purl.org/dc/dcmitype/StillImage" />
        <dc:title></dc:title>
      </cc:Work>
    </rdf:RDF>
  </metadata>
  <g
     inkscape:label="Layer 1"
     inkscape:groupmode="layer"
     id="layer1"
     transform="translate(0,-1002.3622)">
    <g
       transform="translate(-725,947.74386)"
       id="Android"
       style="fill:#b3b3b3">
      <g
         id="g476"
         style="fill:#b3b3b3">
        <path
           style="fill:#b3b3b3"
           inkscape:connector-curvature="0"
           d="m 733.131,71.669 c -1.52,0 -2.75,1.25 -2.75,2.793 v 10.914 c 0,1.542 1.23,2.794 2.75,2.794 1.52,0 2.75,-1.252 2.75,-2.794 V 74.462 c 0,-1.543 -1.231,-2.793 -2.75,-2.793 l 0,0 z"
           id="path478" />
        <path
           style="fill:#b3b3b3"
           inkscape:connector-curvature="0"
           d="m 737.881,71.831 v 19.752 c 0,1.174 0.953,2.125 2.125,2.125 h 2.426 v 6.015 c 0,1.527 1.221,2.766 2.725,2.766 1.504,0 2.725,-1.238 2.725,-2.766 v -6.015 h 4.24 v 6.015 c 0,1.527 1.217,2.766 2.725,2.766 1.504,0 2.723,-1.238 2.723,-2.766 v -6.015 h 2.428 c 1.172,0 2.123,-0.952 2.123,-2.125 V 71.831 h -24.24 l 0,0 0,0 z"
           id="path480" />
        <path
           style="fill:#b3b3b3"
           inkscape:connector-curvature="0"
           d="m 766.871,71.666 c -1.518,0 -2.752,1.252 -2.752,2.795 v 10.918 c 0,1.543 1.234,2.795 2.752,2.795 1.52,0 2.748,-1.252 2.748,-2.795 V 74.46 c 0,-1.543 -1.228,-2.794 -2.748,-2.794 l 0,0 z"
           id="path482" />
        <path
           style="fill:#b3b3b3"
           inkscape:connector-curvature="0"
           d="m 756.357,61.695 2.303,-3.384 c 0.311,-0.456 0.193,-1.079 -0.264,-1.39 -0.457,-0.311 -1.08,-0.192 -1.389,0.265 l -2.512,3.69 c -1.393,-0.482 -2.904,-0.759 -4.496,-0.759 -1.59,0 -3.102,0.276 -4.494,0.758 l -2.512,-3.69 c -0.313,-0.456 -0.934,-0.574 -1.391,-0.264 -0.457,0.31 -0.574,0.934 -0.264,1.39 l 2.305,3.384 c -3.225,1.721 -5.465,4.692 -5.764,8.146 h 24.238 c -0.297,-3.455 -2.535,-6.426 -5.76,-8.146 z m -11.468,4.794 c -0.74,0 -1.342,-0.601 -1.342,-1.341 0,-0.74 0.6,-1.341 1.342,-1.341 0.74,0 1.34,0.601 1.34,1.341 0,0.74 -0.6,1.341 -1.34,1.341 z m 10.392,0 c -0.742,0 -1.34,-0.601 -1.34,-1.341 0,-0.74 0.598,-1.341 1.34,-1.341 0.74,0 1.342,0.601 1.342,1.341 0,0.74 -0.602,1.341 -1.342,1.341 z"
           id="path484" />
      </g>
    </g>
    <g
       id="g3000"
       transform="matrix(0.03840901,0,0,0.03840901,38.931061,1037.943)"
       style="fill:#b3b3b3">
      <path
         id="path3"
         d="m 102.681,291.324 c 0,0 -14.178,8.245 10.09,11.035 29.4,3.354 44.426,2.873 76.825,-3.259 0,0 8.518,5.341 20.414,9.967 -72.63,31.128 -164.376,-1.803 -107.329,-17.743"
         style="fill:#b3b3b3"
         inkscape:connector-curvature="0" />
      <path
         id="path5"
         d="m 93.806,250.704 c 0,0 -15.902,11.771 8.384,14.283 31.406,3.24 56.208,3.505 99.125,-4.759 0,0 5.936,6.018 15.27,9.309 -87.814,25.678 -185.623,2.025 -122.779,-18.833"
         style="fill:#b3b3b3"
         inkscape:connector-curvature="0" />
      <path
         id="path7"
         d="m 168.625,181.799 c 17.896,20.604 -4.702,39.145 -4.702,39.145 0,0 45.441,-23.458 24.572,-52.833 -19.491,-27.394 -34.438,-41.005 46.479,-87.934 0,0 -127.013,31.722 -66.349,101.622"
         style="fill:#b3b3b3"
         inkscape:connector-curvature="0" />
      <path
         id="path9"
         d="m 264.684,321.369 c 0,0 10.492,8.645 -11.555,15.333 -41.923,12.7 -174.488,16.535 -211.314,0.506 -13.238,-5.759 11.587,-13.751 19.396,-15.428 8.144,-1.766 12.798,-1.437 12.798,-1.437 -14.722,-10.371 -95.157,20.364 -40.857,29.166 148.084,24.015 269.943,-10.814 231.532,-28.14"
         style="fill:#b3b3b3"
         inkscape:connector-curvature="0" />
      <path
         id="path11"
         d="m 109.499,208.617 c 0,0 -67.431,16.016 -23.879,21.832 18.389,2.462 55.047,1.905 89.193,-0.956 27.906,-2.354 55.927,-7.359 55.927,-7.359 0,0 -9.84,4.214 -16.959,9.075 -68.475,18.009 -200.756,9.631 -162.674,-8.79 32.206,-15.568 58.392,-13.802 58.392,-13.802"
         style="fill:#b3b3b3"
         inkscape:connector-curvature="0" />
      <path
         id="path13"
         d="m 230.462,276.231 c 69.608,-36.171 37.424,-70.931 14.96,-66.248 -5.506,1.146 -7.961,2.139 -7.961,2.139 0,0 2.044,-3.202 5.948,-4.588 44.441,-15.624 78.619,46.081 -14.346,70.52 0,0.001 1.077,-0.962 1.399,-1.823"
         style="fill:#b3b3b3"
         inkscape:connector-curvature="0" />
      <path
         id="path15"
         d="m 188.495,4.399 c 0,0 38.55,38.563 -36.563,97.862 -60.233,47.568 -13.735,74.69 -0.025,105.678 C 116.748,176.217 90.946,148.292 108.256,122.302 133.663,84.151 204.049,65.654 188.495,4.399"
         style="fill:#b3b3b3"
         inkscape:connector-curvature="0" />
      <path
         id="path17"
         d="m 116.339,374.246 c 66.815,4.277 169.417,-2.373 171.847,-33.988 0,0 -4.671,11.985 -55.219,21.503 -57.028,10.732 -127.364,9.479 -169.081,2.601 10e-4,-0.001 8.54,7.068 52.453,9.884"
         style="fill:#b3b3b3"
         inkscape:connector-curvature="0" />
    </g>
  </g>
</svg>
