<?xml version="1.0" encoding="UTF-8" standalone="no"?>
<!-- Created with Inkscape (http://www.inkscape.org/) -->

<svg
   xmlns:dc="http://purl.org/dc/elements/1.1/"
   xmlns:cc="http://creativecommons.org/ns#"
   xmlns:rdf="http://www.w3.org/1999/02/22-rdf-syntax-ns#"
   xmlns:svg="http://www.w3.org/2000/svg"
   xmlns="http://www.w3.org/2000/svg"
   xmlns:sodipodi="http://sodipodi.sourceforge.net/DTD/sodipodi-0.dtd"
   xmlns:inkscape="http://www.inkscape.org/namespaces/inkscape"
   width="50"
   height="50"
   id="svg2"
   version="1.1"
   inkscape:version="0.48.4 r9939"
   inkscape:export-xdpi="144"
   inkscape:export-ydpi="144">
  <defs
     id="defs4" />
  <sodipodi:namedview
     id="base"
     pagecolor="#ffffff"
     bordercolor="#666666"
     borderopacity="1.0"
     inkscape:pageopacity="0.0"
     inkscape:pageshadow="2"
     inkscape:zoom="3.959798"
     inkscape:cx="52.715801"
     inkscape:cy="12.739491"
     inkscape:document-units="px"
     inkscape:current-layer="layer1"
     showgrid="false"
     inkscape:window-width="753"
     inkscape:window-height="525"
     inkscape:window-x="156"
     inkscape:window-y="251"
     inkscape:window-maximized="0" />
  <metadata
     id="metadata7">
    <rdf:RDF>
      <cc:Work
         rdf:about="">
        <dc:format>image/svg+xml</dc:format>
        <dc:type
           rdf:resource="http://purl.org/dc/dcmitype/StillImage" />
        <dc:title></dc:title>
      </cc:Work>
    </rdf:RDF>
  </metadata>
  <g
     inkscape:label="Layer 1"
     inkscape:groupmode="layer"
     id="layer1"
     transform="translate(0,-1002.3622)">
    <g
       transform="translate(-725,947.74386)"
       id="Android"
       style="fill:#00ff00">
      <g
         id="g476"
         style="fill:#00ff00">
        <path
           style="fill:#00ff00"
           inkscape:connector-curvature="0"
           d="m 733.131,71.669 c -1.52,0 -2.75,1.25 -2.75,2.793 v 10.914 c 0,1.542 1.23,2.794 2.75,2.794 1.52,0 2.75,-1.252 2.75,-2.794 V 74.462 c 0,-1.543 -1.231,-2.793 -2.75,-2.793 l 0,0 z"
           id="path478" />
        <path
           style="fill:#00ff00"
           inkscape:connector-curvature="0"
           d="m 737.881,71.831 v 19.752 c 0,1.174 0.953,2.125 2.125,2.125 h 2.426 v 6.015 c 0,1.527 1.221,2.766 2.725,2.766 1.504,0 2.725,-1.238 2.725,-2.766 v -6.015 h 4.24 v 6.015 c 0,1.527 1.217,2.766 2.725,2.766 1.504,0 2.723,-1.238 2.723,-2.766 v -6.015 h 2.428 c 1.172,0 2.123,-0.952 2.123,-2.125 V 71.831 h -24.24 l 0,0 0,0 z"
           id="path480" />
        <path
           style="fill:#00ff00"
           inkscape:connector-curvature="0"
           d="m 766.871,71.666 c -1.518,0 -2.752,1.252 -2.752,2.795 v 10.918 c 0,1.543 1.234,2.795 2.752,2.795 1.52,0 2.748,-1.252 2.748,-2.795 V 74.46 c 0,-1.543 -1.228,-2.794 -2.748,-2.794 l 0,0 z"
           id="path482" />
        <path
           style="fill:#00ff00"
           inkscape:connector-curvature="0"
           d="m 756.357,61.695 2.303,-3.384 c 0.311,-0.456 0.193,-1.079 -0.264,-1.39 -0.457,-0.311 -1.08,-0.192 -1.389,0.265 l -2.512,3.69 c -1.393,-0.482 -2.904,-0.759 -4.496,-0.759 -1.59,0 -3.102,0.276 -4.494,0.758 l -2.512,-3.69 c -0.313,-0.456 -0.934,-0.574 -1.391,-0.264 -0.457,0.31 -0.574,0.934 -0.264,1.39 l 2.305,3.384 c -3.225,1.721 -5.465,4.692 -5.764,8.146 h 24.238 c -0.297,-3.455 -2.535,-6.426 -5.76,-8.146 z m -11.468,4.794 c -0.74,0 -1.342,-0.601 -1.342,-1.341 0,-0.74 0.6,-1.341 1.342,-1.341 0.74,0 1.34,0.601 1.34,1.341 0,0.74 -0.6,1.341 -1.34,1.341 z m 10.392,0 c -0.742,0 -1.34,-0.601 -1.34,-1.341 0,-0.74 0.598,-1.341 1.34,-1.341 0.74,0 1.342,0.601 1.342,1.341 0,0.74 -0.602,1.341 -1.342,1.341 z"
           id="path484" />
      </g>
    </g>
  </g>
</svg>
