<?xml version="1.0" encoding="UTF-8" standalone="no"?>
<!-- Generator: Adobe Illustrator 13.0.2, SVG Export Plug-In . SVG Version: 6.00 Build 14948)  -->

<svg
   xmlns:dc="http://purl.org/dc/elements/1.1/"
   xmlns:cc="http://creativecommons.org/ns#"
   xmlns:rdf="http://www.w3.org/1999/02/22-rdf-syntax-ns#"
   xmlns:svg="http://www.w3.org/2000/svg"
   xmlns="http://www.w3.org/2000/svg"
   xmlns:sodipodi="http://sodipodi.sourceforge.net/DTD/sodipodi-0.dtd"
   xmlns:inkscape="http://www.inkscape.org/namespaces/inkscape"
   version="1.1"
   x="0px"
   y="0px"
   width="15"
   height="15"
   viewBox="0 0 15 15"
   enable-background="new 0 0 98.586 98.609"
   xml:space="preserve"
   id="svg2"
   inkscape:version="0.48.4 r9939"><metadata
     id="metadata38"><rdf:RDF><cc:Work
         rdf:about=""><dc:format>image/svg+xml</dc:format><dc:type
           rdf:resource="http://purl.org/dc/dcmitype/StillImage" /></cc:Work></rdf:RDF></metadata><defs
     id="defs36" /><sodipodi:namedview
     pagecolor="#ffffff"
     bordercolor="#666666"
     borderopacity="1"
     objecttolerance="10"
     gridtolerance="10"
     guidetolerance="10"
     inkscape:pageopacity="0"
     inkscape:pageshadow="2"
     inkscape:window-width="640"
     inkscape:window-height="480"
     id="namedview34"
     showgrid="false"
     inkscape:zoom="9.5731624"
     inkscape:cx="2.8551854"
     inkscape:cy="4.4056242"
     inkscape:window-x="917"
     inkscape:window-y="391"
     inkscape:window-maximized="0"
     inkscape:current-layer="svg2" /><g
     id="to_circ._w_x2F__back._circ."
     display="none"
     style="display:none"
     transform="translate(0,-83.609001)"><circle
       display="inline"
       cx="49.316002"
       cy="49.32"
       r="44.568001"
       id="circle5"
       sodipodi:cx="49.316002"
       sodipodi:cy="49.32"
       sodipodi:rx="44.568001"
       sodipodi:ry="44.568001"
       style="fill:#ffffff;display:inline"
       d="m 93.884003,49.32 c 0,24.614227 -19.953774,44.568 -44.568001,44.568 -24.614227,0 -44.5680009,-19.953773 -44.5680009,-44.568 0,-24.614227 19.9537739,-44.5680011 44.5680009,-44.5680011 24.614227,0 44.568001,19.9537741 44.568001,44.5680011 z" /><path
       display="inline"
       d="m 49.315,72.884 c 2.598,-0.005 5.094,-0.434 7.43,-1.211 -0.549,-0.502 -1.073,-1.037 -1.55,-1.64 -3.167,-4.039 -4.935,-9.958 -7.73,-19.91 -0.443,0.96 -0.932,2.038 -1.438,3.187 -1.79,4.056 -3.771,8.989 -4.496,12.15 -0.26,1.126 -0.421,2.521 -0.418,4.067 0,0.612 0.034,1.255 0.085,1.91 2.53,0.932 5.263,1.442 8.117,1.447 z"
       id="path7"
       inkscape:connector-curvature="0"
       style="fill:#91dc47;display:inline" /><path
       display="inline"
       d="m 25.353,19.813 c 5.181,0.015 9.254,1.621 11.208,2.72 0.472,0.272 0.919,0.565 1.359,0.866 3.487,-1.536 7.34,-2.395 11.395,-2.395 15.64,0.002 28.317,12.676 28.319,28.315 h -0.002 c 0,7.886 -3.225,15.015 -8.424,20.148 1.276,0.143 2.638,0.231 4.027,0.225 4.936,0.002 10.271,-1.087 14.271,-4.451 2.607,-2.197 4.793,-5.414 6.005,-10.237 0.237,-1.862 0.373,-3.757 0.373,-5.684 0,-24.614 -19.953,-44.571 -44.568,-44.571 -14.926,0 -28.129,7.347 -36.218,18.613 4.209,-2.628 8.505,-3.582 12.255,-3.549 z"
       id="path9"
       inkscape:connector-curvature="0"
       style="fill:#5881d8;display:inline" /><path
       display="inline"
       d="m 73.623,76.563 c -1.347,0 -2.61,-0.072 -3.78,-0.215 -3.121,-0.392 -5.697,-0.863 -7.95,-1.658 -3.79,1.882 -8.059,2.945 -12.577,2.945 C 33.678,77.635 21.001,64.96 21,49.319 21.001,40.832 24.74,33.224 30.654,28.034 29.073,27.653 27.423,27.429 25.737,27.432 17.429,27.511 8.658,32.108 5.008,44.525 4.84,46.1 4.748,47.699 4.748,49.319 c 0,24.615 19.955,44.57 44.568,44.57 15.073,0 28.389,-7.49 36.455,-18.944 -4.362,1.087 -8.557,1.607 -12.148,1.618 z"
       id="path11"
       inkscape:connector-curvature="0"
       style="fill:#63b132;display:inline" /><path
       display="inline"
       d="m 44.906,42.911 c -1.505,-3.778 -3.68,-8.166 -5.62,-10.153 -0.988,-1.038 -2.189,-1.936 -3.515,-2.701 -6.05,4.263 -10.007,11.293 -10.022,19.262 0.015,7.85 3.854,14.789 9.751,19.07 1.446,-6.025 5.072,-11.542 10.508,-22.6 -0.322,-0.887 -0.69,-1.858 -1.102,-2.878 z"
       id="path13"
       inkscape:connector-curvature="0"
       style="fill:#91dc47;display:inline" /><path
       display="inline"
       d="m 61.467,67.711 c 0.274,0.137 0.898,0.359 1.767,0.605 5.841,-4.287 9.636,-11.193 9.65,-18.998 H 72.882 C 72.86,36.307 62.33,25.779 49.315,25.754 c -2.586,0.005 -5.072,0.431 -7.399,1.203 4.785,5.454 7.086,13.249 9.312,21.775 10e-4,0.003 0.003,0.006 0.004,0.01 0.004,0.006 0.712,2.368 1.927,5.5 1.207,3.128 2.927,7 4.802,9.821 1.23,1.891 2.584,3.249 3.506,3.648 z"
       id="path15"
       inkscape:connector-curvature="0"
       style="fill:#90b4fe;display:inline" /><path
       display="inline"
       d="m 93.511,55.003 c -1.212,4.823 -3.397,8.04 -6.005,10.237 -4,3.364 -9.335,4.453 -14.271,4.451 -1.39,0.007 -2.751,-0.082 -4.027,-0.225 5.199,-5.134 8.424,-12.263 8.424,-20.148 h 0.002 C 77.632,33.679 64.954,21.005 49.315,21.003 c -4.055,0 -7.908,0.859 -11.395,2.395 -0.439,-0.301 -0.887,-0.594 -1.359,-0.866 -1.954,-1.099 -6.027,-2.705 -11.208,-2.72 -3.75,-0.034 -8.046,0.92 -12.255,3.548 -4.372,6.089 -7.251,13.319 -8.09,21.164 3.651,-12.417 12.421,-17.015 20.729,-17.093 1.685,-0.003 3.335,0.22 4.917,0.602 C 24.739,33.224 21,40.832 21,49.319 c 0.002,15.642 12.678,28.316 28.315,28.316 4.519,0 8.787,-1.063 12.577,-2.945 2.253,0.795 4.829,1.267 7.95,1.658 1.17,0.143 2.434,0.215 3.78,0.215 3.592,-0.011 7.786,-0.531 12.148,-1.617 4.075,-5.786 6.804,-12.583 7.741,-19.943 z M 25.75,49.319 c 0.015,-7.968 3.973,-14.999 10.022,-19.262 1.326,0.766 2.526,1.663 3.515,2.701 1.94,1.987 4.114,6.375 5.62,10.153 0.412,1.02 0.78,1.991 1.103,2.878 -5.436,11.058 -9.062,16.575 -10.508,22.6 -5.898,-4.281 -9.737,-11.221 -9.752,-19.07 z m 23.565,23.565 c -2.854,-0.005 -5.587,-0.516 -8.117,-1.446 -0.052,-0.655 -0.085,-1.298 -0.085,-1.91 -0.002,-1.547 0.159,-2.941 0.418,-4.067 0.724,-3.161 2.706,-8.095 4.496,-12.15 0.506,-1.148 0.995,-2.227 1.438,-3.187 2.796,9.952 4.563,15.871 7.73,19.91 0.477,0.603 1.001,1.138 1.55,1.64 -2.336,0.777 -4.832,1.205 -7.43,1.21 z M 63.234,68.317 C 62.366,68.071 61.742,67.848 61.467,67.712 60.545,67.313 59.191,65.954 57.96,64.063 56.085,61.242 54.365,57.37 53.158,54.242 51.943,51.11 51.235,48.749 51.231,48.742 51.23,48.739 51.228,48.736 51.227,48.732 49.001,40.206 46.7,32.411 41.915,26.957 c 2.327,-0.771 4.812,-1.198 7.399,-1.203 13.016,0.025 23.546,10.553 23.568,23.565 h 0.002 c -0.014,7.805 -3.809,14.711 -9.65,18.998 z"
       id="path17"
       inkscape:connector-curvature="0"
       style="fill:#ffffff;display:inline" /></g><g
     id="g3017"
     transform="matrix(0.5416357,0,0,0.5416357,-0.62461615,-0.6244552)"><path
       d="m 12.308844,21.778126 0.178392,0.0659 c 0.80469,0.295934 1.650045,0.446127 2.511725,0.447314 0.783319,-0.0012 1.556842,-0.126744 2.299496,-0.373998 L 17.779015,21.757354 17.40472,21.4166 c -0.168893,-0.154943 -0.308697,-0.302761 -0.427426,-0.452064 -0.906798,-1.15702 -1.417335,-2.87296 -2.241022,-5.805582 l -0.217869,-0.775007 -0.337786,0.730781 c -0.132087,0.286138 -0.278124,0.607895 -0.429207,0.951024 -0.398042,0.903236 -1.104186,2.579995 -1.351737,3.659247 -0.08667,0.377264 -0.132087,0.818047 -0.131493,1.274563 0,0.174235 0.008,0.367171 0.02582,0.589196 l 0.01484,0.189373 z"
       id="path22"
       inkscape:connector-curvature="0"
       style="fill:#91dc47" /><path
       d="m 7.8309564,6.5382875 h 0.053428 c 1.6936782,0.00564 2.8649466,0.59068 3.1843286,0.7702585 0.1309,0.075096 0.25705,0.1576136 0.381419,0.2422085 l 0.135946,0.0935 0.150786,-0.066489 c 1.034729,-0.4553282 2.132088,-0.6859605 3.262988,-0.6859605 4.470764,5.937e-4 8.10864,3.638173 8.109233,8.108343 -5.93e-4,2.183735 -0.857524,4.233009 -2.412882,5.769073 l -0.442268,0.436925 0.617691,0.06886 c 0.408429,0.04601 0.807955,0.06946 1.18789,0.06946 l 0.04215,-5.93e-4 c 1.265954,0 3.058178,-0.241021 4.42535,-1.391215 0.512021,-0.431582 0.930543,-0.951915 1.261502,-1.561591 0.286435,-1.082221 0.440487,-2.21876 0.440487,-3.391215 0,-7.3060283 -5.922531,-13.2297465 -13.228856,-13.2297465 -4.721283,0 -8.8622764,2.4758097 -11.203328,6.1976868 1.5384385,-1.191155 3.064708,-1.4295048 4.0341354,-1.4295048 z"
       id="path24"
       inkscape:connector-curvature="0"
       style="fill:#5881d8" /><path
       d="m 22.213864,22.79 c -0.384387,0 -0.749778,-0.02078 -1.085782,-0.06204 -1.027309,-0.129415 -1.714456,-0.271891 -2.296232,-0.477293 l -0.118729,-0.04185 -0.112496,0.0558 c -1.126448,0.559217 -2.337787,0.843277 -3.600773,0.843277 -4.469874,0 -8.1074533,-3.637579 -8.108047,-8.10775 0,-2.332146 1.0077178,-4.553578 2.7646195,-6.0946884 L 10.087116,8.5278994 9.5302743,8.3937349 C 9.0167686,8.2699592 8.506528,8.2067357 8.0152842,8.2067357 5.3590055,8.2313721 3.2571942,9.665626 2.0862232,12.135202 1.882305,13.058028 1.7712928,14.01588 1.7712928,15.000148 c 0,7.306325 5.9231245,13.22945 13.2288552,13.22945 4.636986,0 8.713865,-2.387653 11.075694,-5.998518 -1.372218,0.373405 -2.710301,0.555061 -3.861978,0.55892 z"
       id="path26"
       inkscape:connector-curvature="0"
       style="fill:#63b132" /><path
       d="m 18.488425,20.730931 c 0.09587,0.04838 0.306026,0.121104 0.562185,0.192936 l 0.139804,0.03948 0.116355,-0.08548 c 1.865243,-1.368656 2.981895,-3.566341 2.985753,-5.877414 -0.008,-4.013358 -3.279015,-7.2843595 -7.292374,-7.2917801 h -5.93e-4 -5.94e-4 c -0.777679,0.00119 -1.547937,0.1261502 -2.289107,0.3716237 l -0.425052,0.1409915 0.29534,0.3365985 c 1.374295,1.5654504 2.035619,3.7987544 2.700208,6.3425374 l 0.0018,0.0062 0.008,0.02523 c 0.07243,0.2336 0.273078,0.861087 0.574057,1.636985 0.268626,0.696052 0.815079,2.008905 1.454141,2.971506 0.387356,0.595132 0.824875,1.041258 1.170081,1.190561 z"
       id="path28"
       inkscape:connector-curvature="0"
       style="fill:#90b4fe" /><path
       d="m 14.284802,14.083259 0.0558,-0.113981 -0.04363,-0.118729 c -0.09676,-0.266251 -0.20748,-0.55803 -0.330365,-0.863758 C 13.754971,12.45696 13.005194,10.665626 12.234935,9.8763711 11.939595,9.5650027 11.566191,9.277677 11.128078,9.0250797 L 10.963935,8.9303928 10.808992,9.0399209 C 8.8719185,10.405015 7.7128204,12.63268 7.7083681,14.998961 c 0.00386,2.326804 1.1317902,4.532801 3.0163259,5.900863 l 0.360048,0.261502 0.103295,-0.431582 c 0.2897,-1.2057 0.877115,-2.332147 1.766103,-4.037698 0.391214,-0.750075 0.835263,-1.601069 1.330662,-2.608787 z"
       id="path30"
       inkscape:connector-curvature="0"
       style="fill:#91dc47" /></g></svg>
