<?xml version="1.0" encoding="UTF-8" standalone="no"?>
<!-- Created with Inkscape (http://www.inkscape.org/) -->

<svg
   xmlns:dc="http://purl.org/dc/elements/1.1/"
   xmlns:cc="http://creativecommons.org/ns#"
   xmlns:rdf="http://www.w3.org/1999/02/22-rdf-syntax-ns#"
   xmlns:svg="http://www.w3.org/2000/svg"
   xmlns="http://www.w3.org/2000/svg"
   xmlns:sodipodi="http://sodipodi.sourceforge.net/DTD/sodipodi-0.dtd"
   xmlns:inkscape="http://www.inkscape.org/namespaces/inkscape"
   width="50"
   height="50"
   id="svg2"
   version="1.1"
   inkscape:version="0.48.4 r9939"
   inkscape:export-xdpi="144"
   inkscape:export-ydpi="144">
  <defs
     id="defs4" />
  <sodipodi:namedview
     id="base"
     pagecolor="#ffffff"
     bordercolor="#666666"
     borderopacity="1.0"
     inkscape:pageopacity="0.0"
     inkscape:pageshadow="2"
     inkscape:zoom="3.959798"
     inkscape:cx="52.715801"
     inkscape:cy="58.867219"
     inkscape:document-units="px"
     inkscape:current-layer="layer1"
     showgrid="false"
     inkscape:window-width="753"
     inkscape:window-height="525"
     inkscape:window-x="779"
     inkscape:window-y="86"
     inkscape:window-maximized="0" />
  <metadata
     id="metadata7">
    <rdf:RDF>
      <cc:Work
         rdf:about="">
        <dc:format>image/svg+xml</dc:format>
        <dc:type
           rdf:resource="http://purl.org/dc/dcmitype/StillImage" />
        <dc:title></dc:title>
      </cc:Work>
    </rdf:RDF>
  </metadata>
  <g
     inkscape:label="Layer 1"
     inkscape:groupmode="layer"
     id="layer1"
     transform="translate(0,-1002.3622)">
    <g
       style="fill:#b3b3b3;fill-opacity:1;stroke:none;stroke-width:1.11136960999999990;stroke-miterlimit:4;stroke-opacity:1;stroke-dasharray:none"
       id="g3868"
       transform="matrix(0.2699372,0,0,0.2699372,14.30185,1009.1358)">
      <g
         transform="matrix(3.2601819,0,0,3.2601819,-38.612371,-10.723619)"
         style="fill:#b3b3b3;fill-opacity:1;stroke:none;stroke-opacity:1;stroke-width:0.34089190000000003;stroke-miterlimit:4;stroke-dasharray:none"
         id="g7">
        <path
           style="fill:#b3b3b3;fill-opacity:1;stroke:none;stroke-opacity:1;stroke-width:0.34089190000000003;stroke-miterlimit:4;stroke-dasharray:none"
           id="path9"
           d="M 24,20 C 12.785,20 4,16.047 4,11 4,5.953 12.785,2 24,2 c 11.215,0 20,3.953 20,9 0,5.047 -8.785,9 -20,9 z M 24,4 C 15.486,4 6,6.875 6,11 c 0,4.125 9.486,7 18,7 8.514,0 18,-2.875 18,-7 C 42,6.875 32.514,4 24,4 z"
           inkscape:connector-curvature="0" />
      </g>
      <g
         transform="matrix(3.2601819,0,0,3.2601819,-38.612371,-10.723619)"
         style="fill:#b3b3b3;fill-opacity:1;stroke:none;stroke-opacity:1;stroke-width:0.34089190000000003;stroke-miterlimit:4;stroke-dasharray:none"
         id="g11">
        <path
           style="fill:#b3b3b3;fill-opacity:1;stroke:none;stroke-opacity:1;stroke-width:0.34089190000000003;stroke-miterlimit:4;stroke-dasharray:none"
           id="path13"
           d="M 24,28 C 12.785,28 4,24.047 4,19 v -8 c 0,-0.553 0.447,-1 1,-1 0.553,0 1,0.447 1,1 v 8 c 0,4.125 9.486,7 18,7 8.514,0 18,-2.875 18,-7 v -8 c 0,-0.553 0.447,-1 1,-1 0.553,0 1,0.447 1,1 v 8 c 0,5.047 -8.785,9 -20,9 z"
           inkscape:connector-curvature="0" />
      </g>
      <g
         transform="matrix(3.2601819,0,0,3.2601819,-38.612371,-10.723619)"
         style="fill:#b3b3b3;fill-opacity:1;stroke:none;stroke-opacity:1;stroke-width:0.34089190000000003;stroke-miterlimit:4;stroke-dasharray:none"
         id="g15">
        <path
           style="fill:#b3b3b3;fill-opacity:1;stroke:none;stroke-opacity:1;stroke-width:0.34089190000000003;stroke-miterlimit:4;stroke-dasharray:none"
           id="path17"
           d="M 24,37 C 12.785,37 4,33.047 4,28 v -9 c 0,-0.553 0.447,-1 1,-1 0.553,0 1,0.447 1,1 v 9 c 0,4.125 9.486,7 18,7 8.514,0 18,-2.875 18,-7 v -9 c 0,-0.553 0.447,-1 1,-1 0.553,0 1,0.447 1,1 v 9 c 0,5.047 -8.785,9 -20,9 z"
           inkscape:connector-curvature="0" />
      </g>
      <g
         transform="matrix(3.2601819,0,0,3.2601819,-38.612371,-10.723619)"
         style="fill:#b3b3b3;fill-opacity:1;stroke:none;stroke-opacity:1;stroke-width:0.34089190000000003;stroke-miterlimit:4;stroke-dasharray:none"
         id="g19">
        <path
           style="fill:#b3b3b3;fill-opacity:1;stroke:none;stroke-opacity:1;stroke-width:0.34089190000000003;stroke-miterlimit:4;stroke-dasharray:none"
           id="path21"
           d="M 24,46 C 12.785,46 4,42.047 4,37 v -9 c 0,-0.553 0.447,-1 1,-1 0.553,0 1,0.447 1,1 v 9 c 0,4.125 9.486,7 18,7 8.514,0 18,-2.875 18,-7 v -9 c 0,-0.553 0.447,-1 1,-1 0.553,0 1,0.447 1,1 v 9 c 0,5.047 -8.785,9 -20,9 z"
           inkscape:connector-curvature="0" />
      </g>
    </g>
  </g>
</svg>
