<?xml version="1.0" encoding="utf-8"?>
<svg version="1.1" width="100" height="100" viewBox="-0.758 -0.715 326.77165 398.41897" id="svg3094" xmlns="http://www.w3.org/2000/svg">
  <defs id="defs3096">
    <radialGradient id="radialGradient3148" gradientUnits="userSpaceOnUse" gradientTransform="matrix(1.5962209e-7,-0.17181971,0.35399714,3.292557e-7,-333.00497,657.93973)" cx="1607.4192" cy="1804.7415" r="806.302">
      <stop style="stop-color:#bcbcbc;stop-opacity:1" offset="0" id="stop3114"/>
      <stop style="stop-color:#ffffff;stop-opacity:1" offset="1" id="stop3116"/>
    </radialGradient>
  </defs>
  <path d="m 315.39098,112.45386 c 0,-4.19927 -1.6681,-8.22652 -4.63734,-11.19588 L 226.72961,17.233818 c -2.96948,-2.969322 -6.99684,-4.637383 -11.1959,-4.637383 l -195.113395,0 c -2.799368,0 -5.484272,1.112137 -7.464048,3.091682 -1.979533,1.979568 -3.091601,4.66438 -3.091601,7.463921 l 0,350.685062 c 0,2.79939 1.112068,5.48422 3.091601,7.46395 1.979533,1.97956 4.664437,3.09148 7.464048,3.09148 l 284.415265,0 c 2.7996,0 5.48439,-1.11212 7.46392,-3.09148 1.97953,-1.97973 3.09148,-4.66456 3.09148,-7.46395 l 0,-261.38324 z" style="fill:#838383;fill-opacity:1;fill-rule:evenodd" id="path3132"/>
  <path d="m 312.75213,118.7698 c 0,-4.1993 -1.6681,-8.22655 -4.63747,-11.19591 -2.96924,-2.9693 -6.99659,-4.63736 -11.19588,-4.63736 l -64.7467,0 c -4.37233,0 -7.9168,-3.544486 -7.9168,-7.916775 l 0,-63.951156 c 0,-4.199272 -1.66822,-8.226577 -4.63734,-11.195878 -2.96936,-2.969358 -6.9966,-4.637405 -11.19589,-4.637405 l -188.001736,0 c -2.099706,0 -4.113385,0.83393 -5.598005,2.318762 -1.484742,1.484719 -2.318792,3.498332 -2.318792,5.597979 l 0,350.685063 c 0,2.09948 0.83405,4.1133 2.318792,5.59776 1.48462,1.48468 3.498298,2.31877 5.598005,2.31877 l 284.415266,0 c 2.09946,0 4.11326,-0.83409 5.59776,-2.31877 1.48487,-1.48466 2.31879,-3.49828 2.31879,-5.59776 l 0,-255.06732 z" style="fill:url(#radialGradient3148);fill-opacity:1;fill-rule:evenodd" id="path3134"/>
  <path d="m 1632.897,-3193.032 -451.284,-451.285 c -15.949,-15.948 -37.579,-24.907 -60.132,-24.907 l -1047.934,0 c -31.31,0 -56.693,25.382 -56.693,56.693 l 0,1883.493 c 0,31.311 25.382,56.692 56.693,56.692 l 1527.565,0 c 31.311,0 56.692,-25.382 56.692,-56.692 l 0,-1403.862 c 0,-22.554 -8.959,-44.184 -24.907,-60.132 z" style="fill:#ffff00;fill-rule:evenodd;display:none" id="path3142"/>
  <g transform="matrix(0.502513, 0, 0, 0.504032, 57.404926, 93.780701)">
    <path fill="#96CA4B" d="M122,266.6c-12.7,0-22.3-3.7-28.9-11.1c-6.6-7.4-9.9-18-9.9-31.8c0-14.1,3.4-24.9,10.3-32.5&#10;&#9;&#9;s16.8-11.4,29.9-11.4c8.8,0,16.8,1.6,23.8,4.9l-5.4,14.3c-7.5-2.9-13.7-4.4-18.6-4.4c-14.5,0-21.7,9.6-21.7,28.8&#10;&#9;&#9;c0,9.4,1.8,16.4,5.4,21.2c3.6,4.7,8.9,7.1,15.9,7.1c7.9,0,15.4-2,22.5-5.9v15.5c-3.2,1.9-6.6,3.2-10.2,4&#10;&#9;&#9;C131.5,266.2,127.1,266.6,122,266.6z"/>
    <path fill="#96CA4B" d="M194.4,265.1h-17.8V147.3h17.8V265.1z"/>
    <path fill="#5F7FBF" d="M222.9,302.3c-5.3,0-9.8-0.6-13.3-1.9v-14.1c3.4,0.9,6.9,1.4,10.5,1.4c7.6,0,11.4-4.3,11.4-12.9v-93.5h17.8&#10;&#9;&#9;v94.7c0,8.6-2.3,15.2-6.8,19.6C237.9,300.1,231.4,302.3,222.9,302.3z M230.4,159.2c0-3.2,0.9-5.6,2.6-7.3c1.7-1.7,4.2-2.6,7.5-2.6&#10;&#9;&#9;c3.1,0,5.6,0.9,7.3,2.6c1.7,1.7,2.6,4.2,2.6,7.3c0,3-0.9,5.4-2.6,7.2c-1.7,1.7-4.2,2.6-7.3,2.6c-3.2,0-5.7-0.9-7.5-2.6&#10;&#9;&#9;C231.2,164.6,230.4,162.2,230.4,159.2z"/>
  </g>
  <path fill="#96CA4B" stroke="#96CA4B" stroke-width="6" stroke-miterlimit="10" d="M 156.4 291.715 C 110.571 287.632 74.49 248.872 74.49 201.846 C 74.49 154.819 110.571 116.11 156.4 112.027 L 156.4 101.896 C 104.993 106.029 64.44 149.275 64.44 201.896 C 64.44 254.517 104.993 297.763 156.4 301.896 L 156.4 291.715 Z"/>
  <path fill="#5F7FBF" stroke="#5F7FBF" stroke-width="6" stroke-miterlimit="10" d="M 172.48 101.896 L 172.48 112.027 C 218.309 116.11 254.39 154.87 254.39 201.896 C 254.39 248.922 218.309 287.682 172.48 291.765 L 172.48 301.896 C 223.887 297.763 264.44 254.517 264.44 201.896 C 264.44 149.275 223.887 106.029 172.48 101.896 Z"/>
  <path d="M 215.959 228.629 C 209.577 228.629 204.753 226.764 201.436 223.035 C 198.12 219.305 196.461 213.962 196.461 207.006 C 196.461 199.9 198.17 194.456 201.637 190.625 C 205.105 186.795 210.08 184.879 216.663 184.879 C 221.085 184.879 225.105 185.686 228.622 187.349 L 225.909 194.557 C 222.14 193.095 219.024 192.339 216.562 192.339 C 209.276 192.339 205.657 197.178 205.657 206.855 C 205.657 211.593 206.562 215.121 208.371 217.541 C 210.18 219.91 212.843 221.119 216.361 221.119 C 220.331 221.119 224.1 220.111 227.668 218.146 L 227.668 225.958 C 226.059 226.916 224.351 227.571 222.542 227.974 C 220.733 228.428 218.522 228.629 215.959 228.629 Z" style="fill: rgb(95, 127, 191);"/>
</svg>