<?xml version="1.0" encoding="UTF-8" standalone="no"?>
<!-- Created with Inkscape (http://www.inkscape.org/) -->

<svg
   xmlns:dc="http://purl.org/dc/elements/1.1/"
   xmlns:cc="http://creativecommons.org/ns#"
   xmlns:rdf="http://www.w3.org/1999/02/22-rdf-syntax-ns#"
   xmlns:svg="http://www.w3.org/2000/svg"
   xmlns="http://www.w3.org/2000/svg"
   xmlns:sodipodi="http://sodipodi.sourceforge.net/DTD/sodipodi-0.dtd"
   xmlns:inkscape="http://www.inkscape.org/namespaces/inkscape"
   width="50"
   height="50"
   id="svg2"
   version="1.1"
   inkscape:version="0.48.4 r9939"
   inkscape:export-xdpi="144"
   inkscape:export-ydpi="144">
  <defs
     id="defs4" />
  <sodipodi:namedview
     id="base"
     pagecolor="#ffffff"
     bordercolor="#666666"
     borderopacity="1.0"
     inkscape:pageopacity="0.0"
     inkscape:pageshadow="2"
     inkscape:zoom="3.959798"
     inkscape:cx="52.715801"
     inkscape:cy="32.942542"
     inkscape:document-units="px"
     inkscape:current-layer="layer1"
     showgrid="false"
     inkscape:window-width="753"
     inkscape:window-height="525"
     inkscape:window-x="790"
     inkscape:window-y="96"
     inkscape:window-maximized="0" />
  <metadata
     id="metadata7">
    <rdf:RDF>
      <cc:Work
         rdf:about="">
        <dc:format>image/svg+xml</dc:format>
        <dc:type
           rdf:resource="http://purl.org/dc/dcmitype/StillImage" />
        <dc:title />
      </cc:Work>
    </rdf:RDF>
  </metadata>
  <g
     inkscape:label="Layer 1"
     inkscape:groupmode="layer"
     id="layer1"
     transform="translate(0,-1002.3622)">
    <g
       transform="matrix(0.30673135,0,0,0.30673135,6.5314473,1005.0505)"
       id="g8"
       style="fill:#ffffff;stroke:#000000;stroke-opacity:1;stroke-width:0.97805457;stroke-miterlimit:4;stroke-dasharray:none">
      <path
         inkscape:connector-curvature="0"
         d="m 28.709,28.63 c 3.516,0 7.758,0.726 12.727,2.179 5.015,1.454 8.343,2.18 9.984,2.18 2.109,0 5.555,-0.82 10.336,-2.461 4.781,-1.64 8.93,-2.461 12.445,-2.461 5.766,0 10.899,1.547 15.399,4.641 2.531,1.781 5.039,4.195 7.523,7.242 -3.75,3.188 -6.492,6.024 -8.226,8.508 -3.141,4.5 -4.711,9.469 -4.711,14.906 0,5.953 1.664,11.32 4.992,16.102 3.328,4.781 7.125,7.804 11.392,9.07 -1.783,5.766 -4.736,11.794 -8.861,18.074 -6.234,9.42 -12.422,14.13 -18.562,14.13 -2.438,0 -5.813,-0.77 -10.125,-2.32 -4.266,-1.55 -7.875,-2.32 -10.828,-2.32 -2.954,0 -6.399,0.8 -10.336,2.39 -3.891,1.64 -7.055,2.46 -9.493,2.46 -7.359,0 -14.578,-6.23 -21.656,-18.7 C 3.631,89.919 0.092,77.825 0.092,65.966 0.09199,54.95 2.7873,45.974 8.1779,39.036 13.615,32.098 20.4589,28.63 28.7089,28.63 M 73.0059,0.927 c 0.187,0.60946 0.305,1.1486 0.352,1.6172 0.046,0.4689 0.07,0.9376 0.07,1.4063 0,3.0001 -0.703,6.281 -2.109,9.844 -1.407,3.562 -3.633,6.867 -6.68,9.914 -2.625,2.578 -5.227,4.312 -7.805,5.203 -1.64,0.516 -4.125,0.914 -7.453,1.195 0.094,-7.125 1.945,-13.289 5.555,-18.492 3.656,-5.203 9.679,-8.7655 18.07,-10.687"
         id="path10"
         style="fill:#ffffff;stroke:#000000;stroke-opacity:1;stroke-width:1.30407277;stroke-miterlimit:4;stroke-dasharray:none;fill-opacity:0;opacity:1" />
    </g>
    <g
       id="g3000"
       transform="matrix(0.03840901,0,0,0.03840901,38.931061,1037.943)">
      <path
         id="path3"
         d="m 102.681,291.324 c 0,0 -14.178,8.245 10.09,11.035 29.4,3.354 44.426,2.873 76.825,-3.259 0,0 8.518,5.341 20.414,9.967 -72.63,31.128 -164.376,-1.803 -107.329,-17.743"
         style="fill:#5382a1"
         inkscape:connector-curvature="0" />
      <path
         id="path5"
         d="m 93.806,250.704 c 0,0 -15.902,11.771 8.384,14.283 31.406,3.24 56.208,3.505 99.125,-4.759 0,0 5.936,6.018 15.27,9.309 -87.814,25.678 -185.623,2.025 -122.779,-18.833"
         style="fill:#5382a1"
         inkscape:connector-curvature="0" />
      <path
         id="path7"
         d="m 168.625,181.799 c 17.896,20.604 -4.702,39.145 -4.702,39.145 0,0 45.441,-23.458 24.572,-52.833 -19.491,-27.394 -34.438,-41.005 46.479,-87.934 0,0 -127.013,31.722 -66.349,101.622"
         style="fill:#e76f00"
         inkscape:connector-curvature="0" />
      <path
         id="path9"
         d="m 264.684,321.369 c 0,0 10.492,8.645 -11.555,15.333 -41.923,12.7 -174.488,16.535 -211.314,0.506 -13.238,-5.759 11.587,-13.751 19.396,-15.428 8.144,-1.766 12.798,-1.437 12.798,-1.437 -14.722,-10.371 -95.157,20.364 -40.857,29.166 148.084,24.015 269.943,-10.814 231.532,-28.14"
         style="fill:#5382a1"
         inkscape:connector-curvature="0" />
      <path
         id="path11"
         d="m 109.499,208.617 c 0,0 -67.431,16.016 -23.879,21.832 18.389,2.462 55.047,1.905 89.193,-0.956 27.906,-2.354 55.927,-7.359 55.927,-7.359 0,0 -9.84,4.214 -16.959,9.075 -68.475,18.009 -200.756,9.631 -162.674,-8.79 32.206,-15.568 58.392,-13.802 58.392,-13.802"
         style="fill:#5382a1"
         inkscape:connector-curvature="0" />
      <path
         id="path13"
         d="m 230.462,276.231 c 69.608,-36.171 37.424,-70.931 14.96,-66.248 -5.506,1.146 -7.961,2.139 -7.961,2.139 0,0 2.044,-3.202 5.948,-4.588 44.441,-15.624 78.619,46.081 -14.346,70.52 0,0.001 1.077,-0.962 1.399,-1.823"
         style="fill:#5382a1"
         inkscape:connector-curvature="0" />
      <path
         id="path15"
         d="m 188.495,4.399 c 0,0 38.55,38.563 -36.563,97.862 -60.233,47.568 -13.735,74.69 -0.025,105.678 C 116.748,176.217 90.946,148.292 108.256,122.302 133.663,84.151 204.049,65.654 188.495,4.399"
         style="fill:#e76f00"
         inkscape:connector-curvature="0" />
      <path
         id="path17"
         d="m 116.339,374.246 c 66.815,4.277 169.417,-2.373 171.847,-33.988 0,0 -4.671,11.985 -55.219,21.503 -57.028,10.732 -127.364,9.479 -169.081,2.601 10e-4,-0.001 8.54,7.068 52.453,9.884"
         style="fill:#5382a1"
         inkscape:connector-curvature="0" />
    </g>
  </g>
</svg>
