<?xml version="1.0" encoding="UTF-8" standalone="no"?>
<!-- Created with Inkscape (http://www.inkscape.org/) -->

<svg
   xmlns:dc="http://purl.org/dc/elements/1.1/"
   xmlns:cc="http://creativecommons.org/ns#"
   xmlns:rdf="http://www.w3.org/1999/02/22-rdf-syntax-ns#"
   xmlns:svg="http://www.w3.org/2000/svg"
   xmlns="http://www.w3.org/2000/svg"
   xmlns:sodipodi="http://sodipodi.sourceforge.net/DTD/sodipodi-0.dtd"
   xmlns:inkscape="http://www.inkscape.org/namespaces/inkscape"
   width="50"
   height="50"
   id="svg2"
   version="1.1"
   inkscape:version="0.48.4 r9939"
   inkscape:export-xdpi="144"
   inkscape:export-ydpi="144">
  <defs
     id="defs4" />
  <sodipodi:namedview
     id="base"
     pagecolor="#ffffff"
     bordercolor="#666666"
     borderopacity="1.0"
     inkscape:pageopacity="0.0"
     inkscape:pageshadow="2"
     inkscape:zoom="3.959798"
     inkscape:cx="8.2690893"
     inkscape:cy="32.942542"
     inkscape:document-units="px"
     inkscape:current-layer="layer1"
     showgrid="false"
     inkscape:window-width="753"
     inkscape:window-height="525"
     inkscape:window-x="630"
     inkscape:window-y="121"
     inkscape:window-maximized="0" />
  <metadata
     id="metadata7">
    <rdf:RDF>
      <cc:Work
         rdf:about="">
        <dc:format>image/svg+xml</dc:format>
        <dc:type
           rdf:resource="http://purl.org/dc/dcmitype/StillImage" />
        <dc:title></dc:title>
      </cc:Work>
    </rdf:RDF>
  </metadata>
  <g
     inkscape:label="Layer 1"
     inkscape:groupmode="layer"
     id="layer1"
     transform="translate(0,-1002.3622)">
    <g
       transform="matrix(0.30673135,0,0,0.30673135,9.5619044,1008.6705)"
       id="g8"
       style="fill:#ffffff;stroke:#000000;stroke-width:0.97805458;stroke-miterlimit:4;stroke-opacity:1;stroke-dasharray:none">
      <path
         inkscape:connector-curvature="0"
         d="m 28.709,28.63 c 3.516,0 7.758,0.726 12.727,2.179 5.015,1.454 8.343,2.18 9.984,2.18 2.109,0 5.555,-0.82 10.336,-2.461 4.781,-1.64 8.93,-2.461 12.445,-2.461 5.766,0 10.899,1.547 15.399,4.641 2.531,1.781 5.039,4.195 7.523,7.242 -3.75,3.188 -6.492,6.024 -8.226,8.508 -3.141,4.5 -4.711,9.469 -4.711,14.906 0,5.953 1.664,11.32 4.992,16.102 3.328,4.781 7.125,7.804 11.392,9.07 -1.783,5.766 -4.736,11.794 -8.861,18.074 -6.234,9.42 -12.422,14.13 -18.562,14.13 -2.438,0 -5.813,-0.77 -10.125,-2.32 -4.266,-1.55 -7.875,-2.32 -10.828,-2.32 -2.954,0 -6.399,0.8 -10.336,2.39 -3.891,1.64 -7.055,2.46 -9.493,2.46 -7.359,0 -14.578,-6.23 -21.656,-18.7 C 3.631,89.919 0.092,77.825 0.092,65.966 0.09199,54.95 2.7873,45.974 8.1779,39.036 13.615,32.098 20.4589,28.63 28.7089,28.63 M 73.0059,0.927 c 0.187,0.60946 0.305,1.1486 0.352,1.6172 0.046,0.4689 0.07,0.9376 0.07,1.4063 0,3.0001 -0.703,6.281 -2.109,9.844 -1.407,3.562 -3.633,6.867 -6.68,9.914 -2.625,2.578 -5.227,4.312 -7.805,5.203 -1.64,0.516 -4.125,0.914 -7.453,1.195 0.094,-7.125 1.945,-13.289 5.555,-18.492 3.656,-5.203 9.679,-8.7655 18.07,-10.687"
         id="path10"
         style="fill:#333333;fill-opacity:1;stroke:#ffffff;stroke-width:1.30407274;stroke-miterlimit:4;stroke-opacity:1;stroke-dasharray:none" />
    </g>
  </g>
</svg>
