<?xml version="1.0" encoding="UTF-8" standalone="no"?>
<!-- Created with Inkscape (http://www.inkscape.org/) -->

<svg
   xmlns:dc="http://purl.org/dc/elements/1.1/"
   xmlns:cc="http://creativecommons.org/ns#"
   xmlns:rdf="http://www.w3.org/1999/02/22-rdf-syntax-ns#"
   xmlns:svg="http://www.w3.org/2000/svg"
   xmlns="http://www.w3.org/2000/svg"
   xmlns:xlink="http://www.w3.org/1999/xlink"
   xmlns:sodipodi="http://sodipodi.sourceforge.net/DTD/sodipodi-0.dtd"
   xmlns:inkscape="http://www.inkscape.org/namespaces/inkscape"
   width="50"
   height="50"
   id="svg2"
   version="1.1"
   inkscape:version="0.48.4 r9939"
   inkscape:export-xdpi="144"
   inkscape:export-ydpi="144">
  <defs
     id="defs4">
    <radialGradient
       inkscape:collect="always"
       xlink:href="#linearGradient3247"
       id="radialGradient3002"
       gradientUnits="userSpaceOnUse"
       gradientTransform="matrix(1.1962026,-0.01265835,0.01265765,1.1961356,137.20458,-71.104723)"
       cx="333.23676"
       cy="147.22485"
       fx="333.23676"
       fy="147.22485"
       r="112.85714" />
    <linearGradient
       id="linearGradient3247">
      <stop
         id="stop3249"
         style="stop-color:#ffffff;stop-opacity:1;"
         offset="0" />
      <stop
         id="stop3255"
         style="stop-color:#b3b3b3;stop-opacity:1;"
         offset="0.5" />
      <stop
         id="stop3251"
         style="stop-color:#b3b3b3;stop-opacity:1;"
         offset="1" />
    </linearGradient>
    <radialGradient
       r="112.85714"
       fy="147.22485"
       fx="333.23676"
       cy="147.22485"
       cx="333.23676"
       gradientTransform="matrix(0.10522684,-0.00111352,0.00111346,0.10522095,-0.39835754,1000.2694)"
       gradientUnits="userSpaceOnUse"
       id="radialGradient3815"
       xlink:href="#linearGradient3247"
       inkscape:collect="always" />
  </defs>
  <sodipodi:namedview
     id="base"
     pagecolor="#ffffff"
     bordercolor="#666666"
     borderopacity="1.0"
     inkscape:pageopacity="0.0"
     inkscape:pageshadow="2"
     inkscape:zoom="3.959798"
     inkscape:cx="52.463263"
     inkscape:cy="14.25472"
     inkscape:document-units="px"
     inkscape:current-layer="layer1"
     showgrid="false"
     inkscape:window-width="753"
     inkscape:window-height="525"
     inkscape:window-x="270"
     inkscape:window-y="180"
     inkscape:window-maximized="0" />
  <metadata
     id="metadata7">
    <rdf:RDF>
      <cc:Work
         rdf:about="">
        <dc:format>image/svg+xml</dc:format>
        <dc:type
           rdf:resource="http://purl.org/dc/dcmitype/StillImage" />
        <dc:title />
      </cc:Work>
    </rdf:RDF>
  </metadata>
  <g
     inkscape:label="Layer 1"
     inkscape:groupmode="layer"
     id="layer1"
     transform="translate(0,-1002.3622)">
    <g
       id="g3814"
       transform="translate(-52.275394,-20.708128)"
       style="fill:#b3b3b3">
      <path
         d="m 54.95846,1029.8041 -0.234148,12.8019 11.397842,6.6127 1.41288,-14.4481 -12.576574,-4.9665 z"
         id="path3241"
         style="fill:#b3b3b3;fill-opacity:1;fill-rule:evenodd;stroke:#ffffff;stroke-width:0.50000000000000000;stroke-miterlimit:4;stroke-opacity:1;stroke-dasharray:none"
         inkscape:connector-curvature="0" />
      <path
         d="m 54.957451,1029.8047 10.023337,-3.5948 12.119807,4.2124 -9.890266,4.6004 -12.252878,-5.218 z"
         id="path2467"
         style="fill:#b3b3b3;fill-opacity:1;fill-rule:evenodd;stroke:#ffffff;stroke-width:0.50000000000000000;stroke-miterlimit:4;stroke-opacity:1;stroke-dasharray:none"
         inkscape:connector-curvature="0" />
      <path
         d="m 77.096676,1030.4222 -1.54341,13.1768 -9.433295,5.6212 1.095166,-14.221 9.881539,-4.577 z"
         id="path3239"
         style="fill:#b3b3b3;fill-opacity:1;fill-rule:evenodd;stroke:#ffffff;stroke-width:0.50000000000000000;stroke-miterlimit:4;stroke-opacity:1;stroke-dasharray:none"
         inkscape:connector-curvature="0" />
    </g>
    <path
       inkscape:connector-curvature="0"
       style="fill:url(#radialGradient3815);fill-opacity:1.0;fill-rule:evenodd;stroke:#ffffff;stroke-width:0.50000000000000000;stroke-miterlimit:4;stroke-opacity:1;stroke-dasharray:none"
       id="path3245"
       d="m 40.674567,1020.0392 a 9.8649165,9.8649165 0 0 1 -19.729831,0 9.8649165,9.8649165 0 1 1 19.729831,0 z" />
    <g
       id="g3000"
       transform="matrix(0.03840901,0,0,0.03840901,38.931061,1037.943)"
       style="fill:#b3b3b3">
      <path
         id="path3"
         d="m 102.681,291.324 c 0,0 -14.178,8.245 10.09,11.035 29.4,3.354 44.426,2.873 76.825,-3.259 0,0 8.518,5.341 20.414,9.967 -72.63,31.128 -164.376,-1.803 -107.329,-17.743"
         style="fill:#b3b3b3"
         inkscape:connector-curvature="0" />
      <path
         id="path5"
         d="m 93.806,250.704 c 0,0 -15.902,11.771 8.384,14.283 31.406,3.24 56.208,3.505 99.125,-4.759 0,0 5.936,6.018 15.27,9.309 -87.814,25.678 -185.623,2.025 -122.779,-18.833"
         style="fill:#b3b3b3"
         inkscape:connector-curvature="0" />
      <path
         id="path7"
         d="m 168.625,181.799 c 17.896,20.604 -4.702,39.145 -4.702,39.145 0,0 45.441,-23.458 24.572,-52.833 -19.491,-27.394 -34.438,-41.005 46.479,-87.934 0,0 -127.013,31.722 -66.349,101.622"
         style="fill:#b3b3b3"
         inkscape:connector-curvature="0" />
      <path
         id="path9"
         d="m 264.684,321.369 c 0,0 10.492,8.645 -11.555,15.333 -41.923,12.7 -174.488,16.535 -211.314,0.506 -13.238,-5.759 11.587,-13.751 19.396,-15.428 8.144,-1.766 12.798,-1.437 12.798,-1.437 -14.722,-10.371 -95.157,20.364 -40.857,29.166 148.084,24.015 269.943,-10.814 231.532,-28.14"
         style="fill:#b3b3b3"
         inkscape:connector-curvature="0" />
      <path
         id="path11"
         d="m 109.499,208.617 c 0,0 -67.431,16.016 -23.879,21.832 18.389,2.462 55.047,1.905 89.193,-0.956 27.906,-2.354 55.927,-7.359 55.927,-7.359 0,0 -9.84,4.214 -16.959,9.075 -68.475,18.009 -200.756,9.631 -162.674,-8.79 32.206,-15.568 58.392,-13.802 58.392,-13.802"
         style="fill:#b3b3b3"
         inkscape:connector-curvature="0" />
      <path
         id="path13"
         d="m 230.462,276.231 c 69.608,-36.171 37.424,-70.931 14.96,-66.248 -5.506,1.146 -7.961,2.139 -7.961,2.139 0,0 2.044,-3.202 5.948,-4.588 44.441,-15.624 78.619,46.081 -14.346,70.52 0,0.001 1.077,-0.962 1.399,-1.823"
         style="fill:#b3b3b3"
         inkscape:connector-curvature="0" />
      <path
         id="path15"
         d="m 188.495,4.399 c 0,0 38.55,38.563 -36.563,97.862 -60.233,47.568 -13.735,74.69 -0.025,105.678 C 116.748,176.217 90.946,148.292 108.256,122.302 133.663,84.151 204.049,65.654 188.495,4.399"
         style="fill:#b3b3b3"
         inkscape:connector-curvature="0" />
      <path
         id="path17"
         d="m 116.339,374.246 c 66.815,4.277 169.417,-2.373 171.847,-33.988 0,0 -4.671,11.985 -55.219,21.503 -57.028,10.732 -127.364,9.479 -169.081,2.601 10e-4,-0.001 8.54,7.068 52.453,9.884"
         style="fill:#b3b3b3"
         inkscape:connector-curvature="0" />
    </g>
    <g
       id="g3775"
       style="fill:#b3b3b3">
      <path
         d="m 28.527218,1023.1713 -6.34555,13.449 1.890397,8.8271 1.287617,-1.7035 3.167536,-20.5726 z"
         id="path3261"
         style="fill:#b3b3b3;fill-opacity:1;fill-rule:evenodd;stroke:#ffffff;stroke-opacity:1;stroke-width:0.50000000000000000;stroke-miterlimit:4;stroke-dasharray:none"
         inkscape:connector-curvature="0" />
      <path
         d="m 28.525322,1023.1624 13.437696,16.445 -17.893839,5.8415 4.456143,-22.2865 z"
         id="path3259"
         style="fill:#b3b3b3;fill-opacity:1;fill-rule:evenodd;stroke:#ffffff;stroke-opacity:1;stroke-width:0.50000000000000000;stroke-miterlimit:4;stroke-dasharray:none"
         inkscape:connector-curvature="0" />
    </g>
  </g>
</svg>
