<?xml version="1.0" encoding="UTF-8" standalone="no"?>
<!-- Created with Inkscape (http://www.inkscape.org/) -->

<svg
   xmlns:dc="http://purl.org/dc/elements/1.1/"
   xmlns:cc="http://creativecommons.org/ns#"
   xmlns:rdf="http://www.w3.org/1999/02/22-rdf-syntax-ns#"
   xmlns:svg="http://www.w3.org/2000/svg"
   xmlns="http://www.w3.org/2000/svg"
   xmlns:sodipodi="http://sodipodi.sourceforge.net/DTD/sodipodi-0.dtd"
   xmlns:inkscape="http://www.inkscape.org/namespaces/inkscape"
   width="50"
   height="50"
   id="svg2"
   version="1.1"
   inkscape:version="0.48.4 r9939"
   inkscape:export-xdpi="144"
   inkscape:export-ydpi="144">
  <defs
     id="defs4" />
  <sodipodi:namedview
     id="base"
     pagecolor="#ffffff"
     bordercolor="#666666"
     borderopacity="1.0"
     inkscape:pageopacity="0.0"
     inkscape:pageshadow="2"
     inkscape:zoom="3.959798"
     inkscape:cx="52.463263"
     inkscape:cy="14.25472"
     inkscape:document-units="px"
     inkscape:current-layer="layer1"
     showgrid="false"
     inkscape:window-width="753"
     inkscape:window-height="525"
     inkscape:window-x="136"
     inkscape:window-y="205"
     inkscape:window-maximized="0" />
  <metadata
     id="metadata7">
    <rdf:RDF>
      <cc:Work
         rdf:about="">
        <dc:format>image/svg+xml</dc:format>
        <dc:type
           rdf:resource="http://purl.org/dc/dcmitype/StillImage" />
        <dc:title></dc:title>
      </cc:Work>
    </rdf:RDF>
  </metadata>
  <g
     inkscape:label="Layer 1"
     inkscape:groupmode="layer"
     id="layer1"
     transform="translate(0,-1002.3622)">
    <rect
       style="fill:#ff0000;fill-opacity:1;stroke:#ffffff;stroke-width:0.5;stroke-miterlimit:4;stroke-opacity:1;stroke-dasharray:none"
       id="rect3786"
       width="17.172594"
       height="17.172594"
       x="4.5659904"
       y="1008.1682" />
    <path
       sodipodi:type="arc"
       style="fill:#0000ff;fill-opacity:1;stroke:#ffffff;stroke-width:0.66666669;stroke-miterlimit:4;stroke-opacity:1;stroke-dasharray:none"
       id="path3788"
       sodipodi:cx="70.710678"
       sodipodi:cy="18.432734"
       sodipodi:rx="12.626906"
       sodipodi:ry="12.626906"
       d="m 83.337584,18.432734 c 0,6.973647 -5.653258,12.626906 -12.626906,12.626906 -6.973648,0 -12.626906,-5.653259 -12.626906,-12.626906 0,-6.973648 5.653258,-12.6269069 12.626906,-12.6269069 6.973648,0 12.626906,5.6532589 12.626906,12.6269069 z"
       transform="matrix(0.74999999,0,0,0.74999999,-23.339471,1007.6016)" />
    <path
       style="fill:#00ff00;fill-opacity:1;stroke:#ffffff;stroke-width:0.5;stroke-miterlimit:4;stroke-opacity:1;stroke-dasharray:none"
       d="m 18.36255,1040.998 8.586296,-17.1726 8.679337,17.1992 z"
       id="path3016"
       inkscape:connector-curvature="0"
       sodipodi:nodetypes="cccc" />
    <g
       id="g3017"
       transform="matrix(0.5416357,0,0,0.5416357,34.710163,1037.072)">
      <path
         d="m 12.308844,21.778126 0.178392,0.0659 c 0.80469,0.295934 1.650045,0.446127 2.511725,0.447314 0.783319,-0.0012 1.556842,-0.126744 2.299496,-0.373998 L 17.779015,21.757354 17.40472,21.4166 c -0.168893,-0.154943 -0.308697,-0.302761 -0.427426,-0.452064 -0.906798,-1.15702 -1.417335,-2.87296 -2.241022,-5.805582 l -0.217869,-0.775007 -0.337786,0.730781 c -0.132087,0.286138 -0.278124,0.607895 -0.429207,0.951024 -0.398042,0.903236 -1.104186,2.579995 -1.351737,3.659247 -0.08667,0.377264 -0.132087,0.818047 -0.131493,1.274563 0,0.174235 0.008,0.367171 0.02582,0.589196 l 0.01484,0.189373 z"
         id="path22"
         inkscape:connector-curvature="0"
         style="fill:#91dc47" />
      <path
         d="m 7.8309564,6.5382875 h 0.053428 c 1.6936782,0.00564 2.8649466,0.59068 3.1843286,0.7702585 0.1309,0.075096 0.25705,0.1576136 0.381419,0.2422085 l 0.135946,0.0935 0.150786,-0.066489 c 1.034729,-0.4553282 2.132088,-0.6859605 3.262988,-0.6859605 4.470764,5.937e-4 8.10864,3.638173 8.109233,8.108343 -5.93e-4,2.183735 -0.857524,4.233009 -2.412882,5.769073 l -0.442268,0.436925 0.617691,0.06886 c 0.408429,0.04601 0.807955,0.06946 1.18789,0.06946 l 0.04215,-5.93e-4 c 1.265954,0 3.058178,-0.241021 4.42535,-1.391215 0.512021,-0.431582 0.930543,-0.951915 1.261502,-1.561591 0.286435,-1.082221 0.440487,-2.21876 0.440487,-3.391215 0,-7.3060283 -5.922531,-13.2297465 -13.228856,-13.2297465 -4.721283,0 -8.8622764,2.4758097 -11.203328,6.1976868 1.5384385,-1.191155 3.064708,-1.4295048 4.0341354,-1.4295048 z"
         id="path24"
         inkscape:connector-curvature="0"
         style="fill:#5881d8" />
      <path
         d="m 22.213864,22.79 c -0.384387,0 -0.749778,-0.02078 -1.085782,-0.06204 -1.027309,-0.129415 -1.714456,-0.271891 -2.296232,-0.477293 l -0.118729,-0.04185 -0.112496,0.0558 c -1.126448,0.559217 -2.337787,0.843277 -3.600773,0.843277 -4.469874,0 -8.1074533,-3.637579 -8.108047,-8.10775 0,-2.332146 1.0077178,-4.553578 2.7646195,-6.0946884 L 10.087116,8.5278994 9.5302743,8.3937349 C 9.0167686,8.2699592 8.506528,8.2067357 8.0152842,8.2067357 5.3590055,8.2313721 3.2571942,9.665626 2.0862232,12.135202 1.882305,13.058028 1.7712928,14.01588 1.7712928,15.000148 c 0,7.306325 5.9231245,13.22945 13.2288552,13.22945 4.636986,0 8.713865,-2.387653 11.075694,-5.998518 -1.372218,0.373405 -2.710301,0.555061 -3.861978,0.55892 z"
         id="path26"
         inkscape:connector-curvature="0"
         style="fill:#63b132" />
      <path
         d="m 18.488425,20.730931 c 0.09587,0.04838 0.306026,0.121104 0.562185,0.192936 l 0.139804,0.03948 0.116355,-0.08548 c 1.865243,-1.368656 2.981895,-3.566341 2.985753,-5.877414 -0.008,-4.013358 -3.279015,-7.2843595 -7.292374,-7.2917801 h -5.93e-4 -5.94e-4 c -0.777679,0.00119 -1.547937,0.1261502 -2.289107,0.3716237 l -0.425052,0.1409915 0.29534,0.3365985 c 1.374295,1.5654504 2.035619,3.7987544 2.700208,6.3425374 l 0.0018,0.0062 0.008,0.02523 c 0.07243,0.2336 0.273078,0.861087 0.574057,1.636985 0.268626,0.696052 0.815079,2.008905 1.454141,2.971506 0.387356,0.595132 0.824875,1.041258 1.170081,1.190561 z"
         id="path28"
         inkscape:connector-curvature="0"
         style="fill:#90b4fe" />
      <path
         d="m 14.284802,14.083259 0.0558,-0.113981 -0.04363,-0.118729 c -0.09676,-0.266251 -0.20748,-0.55803 -0.330365,-0.863758 C 13.754971,12.45696 13.005194,10.665626 12.234935,9.8763711 11.939595,9.5650027 11.566191,9.277677 11.128078,9.0250797 L 10.963935,8.9303928 10.808992,9.0399209 C 8.8719185,10.405015 7.7128204,12.63268 7.7083681,14.998961 c 0.00386,2.326804 1.1317902,4.532801 3.0163259,5.900863 l 0.360048,0.261502 0.103295,-0.431582 c 0.2897,-1.2057 0.877115,-2.332147 1.766103,-4.037698 0.391214,-0.750075 0.835263,-1.601069 1.330662,-2.608787 z"
         id="path30"
         inkscape:connector-curvature="0"
         style="fill:#91dc47" />
    </g>
  </g>
</svg>
