<?xml version="1.0" encoding="UTF-8" standalone="no"?>
<!-- Created with Inkscape (http://www.inkscape.org/) -->

<svg
   xmlns:dc="http://purl.org/dc/elements/1.1/"
   xmlns:cc="http://creativecommons.org/ns#"
   xmlns:rdf="http://www.w3.org/1999/02/22-rdf-syntax-ns#"
   xmlns:svg="http://www.w3.org/2000/svg"
   xmlns="http://www.w3.org/2000/svg"
   xmlns:sodipodi="http://sodipodi.sourceforge.net/DTD/sodipodi-0.dtd"
   xmlns:inkscape="http://www.inkscape.org/namespaces/inkscape"
   width="512"
   height="512"
   id="svg2"
   version="1.1"
   inkscape:version="0.48.4 r9939">
  <sodipodi:namedview
     id="base"
     pagecolor="#ffffff"
     bordercolor="#666666"
     borderopacity="1.0"
     inkscape:pageopacity="0.0"
     inkscape:pageshadow="2"
     inkscape:zoom="0.35"
     inkscape:cx="423.09945"
     inkscape:cy="-31.265263"
     inkscape:document-units="px"
     inkscape:current-layer="layer1"
     showgrid="false"
     inkscape:window-width="1163"
     inkscape:window-height="741"
     inkscape:window-x="72"
     inkscape:window-y="24"
     inkscape:window-maximized="0" />
  <defs
     id="defs4" />
  <metadata
     id="metadata7">
    <rdf:RDF>
      <cc:Work
         rdf:about="">
        <dc:format>image/svg+xml</dc:format>
        <dc:type
           rdf:resource="http://purl.org/dc/dcmitype/StillImage" />
        <dc:title />
      </cc:Work>
    </rdf:RDF>
  </metadata>
  <g
     inkscape:label="Layer 2"
     id="layer2"
     inkscape:groupmode="layer">
    <rect
       style="fill:#4f5a64;fill-opacity:1"
       id="rect3289"
       width="380"
       height="234.85001"
       x="66"
       y="138.575"
       ry="13.892532" />
  </g>
  <g
     transform="translate(0,-540.36218)"
     id="layer1"
     inkscape:groupmode="layer"
     inkscape:label="Layer 1">
    <text
       sodipodi:linespacing="125%"
       id="text2994"
       y="844.11121"
       x="122.85715"
       style="font-size:90px;font-style:normal;font-variant:normal;font-weight:normal;font-stretch:normal;text-align:start;line-height:125%;letter-spacing:0px;word-spacing:0px;writing-mode:lr-tb;text-anchor:start;fill:#c0c0c0;fill-opacity:1;stroke:none;font-family:Gill Sans;-inkscape-font-specification:Gill Sans"
       xml:space="preserve"><tspan
         style="font-size:140px;font-style:normal;font-variant:normal;font-weight:normal;font-stretch:normal;text-align:start;line-height:125%;writing-mode:lr-tb;text-anchor:start;font-family:Gill Sans;-inkscape-font-specification:Gill Sans"
         y="844.11121"
         x="122.85715"
         id="tspan2996"
         sodipodi:role="line">N</tspan></text>
    <path
       style="fill:#c0c0c0;fill-opacity:1;stroke:none"
       d="M 181.28125 16.71875 C 149.51005 16.71875 119.1753 22.91335 91.4375 34.15625 C 187.92919 61.76745 258.5625 150.6391 258.5625 256 C 258.5625 361.3609 187.9292 450.23265 91.4375 477.84375 C 119.17531 489.08675 149.51005 495.28125 181.28125 495.28125 C 313.43512 495.28125 420.5625 388.1538 420.5625 256 C 420.5625 123.8461 313.43512 16.71875 181.28125 16.71875 z M 337.625 203.0625 C 343.73171 203.0626 349.46608 203.89073 354.84375 205.53125 C 360.26685 207.1264 365.35408 209.51442 370.09375 212.75 L 370.09375 227.3125 C 365.44523 222.98316 360.47388 219.76701 355.1875 217.625 C 349.94654 215.48316 344.36191 214.40634 338.4375 214.40625 C 326.77079 214.40634 317.85413 217.97014 311.65625 225.125 C 305.45831 232.23445 302.34373 242.54173 302.34375 256.03125 C 302.34373 269.4753 305.45831 279.78258 311.65625 286.9375 C 317.85413 294.04689 326.77079 297.59376 338.4375 297.59375 C 344.36191 297.59376 349.94654 296.51694 355.1875 294.375 C 360.47388 292.23309 365.44523 289.01695 370.09375 284.6875 L 370.09375 299.09375 C 365.26294 302.375 360.14185 304.82813 354.71875 306.46875 C 349.34108 308.10937 343.64056 308.9375 337.625 308.9375 C 322.17574 308.9375 310.01169 304.21485 301.125 294.78125 C 292.23827 285.3021 287.78124 272.39196 287.78125 256.03125 C 287.78124 239.62507 292.23827 226.71492 301.125 217.28125 C 310.01169 207.80218 322.17574 203.0626 337.625 203.0625 z "
       transform="translate(0,540.36218)"
       id="path2987-6" />
  </g>
</svg>
